<svg width="25" height="25" viewBox="0 0 25 25" fill="none" xmlns="http://www.w3.org/2000/svg">
<path fill-rule="evenodd" clip-rule="evenodd" d="M8.125 6.5V7.25H6.13787C5.17832 7.25 4.37362 7.97444 4.27317 8.92872L3.01002 20.9287C2.89348 22.0358 3.76152 23 4.87471 23H20.3754C21.4886 23 22.3567 22.0358 22.2401 20.9287L20.977 8.92872C20.8765 7.97444 20.0718 7.25 19.1123 7.25H17.125V6.5C17.125 4.01472 15.1103 2 12.625 2C10.1397 2 8.125 4.01472 8.125 6.5ZM12.625 3.5C10.9681 3.5 9.625 4.84315 9.625 6.5V7.25H15.625V6.5C15.625 4.84315 14.2819 3.5 12.625 3.5ZM9.625 11.75C9.625 13.4069 10.9681 14.75 12.625 14.75C14.2819 14.75 15.625 13.4069 15.625 11.75V11C15.625 10.5858 15.9608 10.25 16.375 10.25C16.7892 10.25 17.125 10.5858 17.125 11V11.75C17.125 14.2353 15.1103 16.25 12.625 16.25C10.1397 16.25 8.125 14.2353 8.125 11.75V11C8.125 10.5858 8.46079 10.25 8.875 10.25C9.28921 10.25 9.625 10.5858 9.625 11V11.75Z" fill="#262626"/>
</svg>
