<svg width="57" height="56" viewBox="0 0 57 56" fill="none" xmlns="http://www.w3.org/2000/svg">
<rect x="0.333496" width="56" height="56" rx="28" fill="#FFD400"/>
<path fill-rule="evenodd" clip-rule="evenodd" d="M25.3335 20.5C25.6684 20.5 25.9626 20.722 26.0546 21.044L26.8678 23.8902C27.2238 25.1359 28.1976 26.1097 29.4433 26.4657L32.2895 27.2789C32.6115 27.3709 32.8335 27.6651 32.8335 28C32.8335 28.3349 32.6115 28.6291 32.2895 28.7211L29.4433 29.5343C28.1976 29.8903 27.2238 30.8641 26.8678 32.1099L26.0546 34.956C25.9626 35.278 25.6684 35.5 25.3335 35.5C24.9986 35.5 24.7043 35.278 24.6124 34.956L23.7992 32.1099C23.4432 30.8641 22.4694 29.8903 21.2236 29.5343L18.3775 28.7211C18.0555 28.6291 17.8335 28.3349 17.8335 28C17.8335 27.6651 18.0555 27.3709 18.3775 27.2789L21.2236 26.4657C22.4694 26.1097 23.4432 25.1359 23.7992 23.8901L24.6124 21.044C24.7043 20.722 24.9986 20.5 25.3335 20.5Z" fill="#262626"/>
<path fill-rule="evenodd" clip-rule="evenodd" d="M34.3335 17.5C34.6776 17.5 34.9776 17.7342 35.0611 18.0681L35.32 19.1036C35.5551 20.0441 36.2894 20.7784 37.2299 21.0135L38.2654 21.2724C38.5993 21.3559 38.8335 21.6558 38.8335 22C38.8335 22.3442 38.5993 22.6441 38.2654 22.7276L37.2299 22.9865C36.2894 23.2216 35.5551 23.9559 35.32 24.8964L35.0611 25.9319C34.9776 26.2658 34.6776 26.5 34.3335 26.5C33.9893 26.5 33.6894 26.2658 33.6059 25.9319L33.347 24.8964C33.1119 23.9559 32.3776 23.2216 31.4371 22.9865L30.4016 22.7276C30.0677 22.6441 29.8335 22.3442 29.8335 22C29.8335 21.6558 30.0677 21.3559 30.4016 21.2724L31.4371 21.0135C32.3776 20.7784 33.1119 20.0441 33.347 19.1036L33.6059 18.0681C33.6894 17.7342 33.9893 17.5 34.3335 17.5Z" fill="#262626"/>
<path fill-rule="evenodd" clip-rule="evenodd" d="M32.8335 31C33.1563 31 33.4429 31.2066 33.545 31.5128L33.9393 32.6956C34.0886 33.1435 34.44 33.4949 34.8879 33.6442L36.0707 34.0385C36.3769 34.1406 36.5835 34.4272 36.5835 34.75C36.5835 35.0728 36.3769 35.3594 36.0707 35.4615L34.8879 35.8558C34.44 36.0051 34.0886 36.3565 33.9393 36.8044L33.545 37.9872C33.4429 38.2934 33.1563 38.5 32.8335 38.5C32.5107 38.5 32.2241 38.2934 32.122 37.9872L31.7277 36.8044C31.5784 36.3565 31.227 36.0051 30.7791 35.8558L29.5963 35.4615C29.2901 35.3594 29.0835 35.0728 29.0835 34.75C29.0835 34.4272 29.2901 34.1406 29.5963 34.0385L30.7791 33.6442C31.227 33.4949 31.5784 33.1435 31.7277 32.6956L32.122 31.5128C32.2241 31.2066 32.5107 31 32.8335 31Z" fill="#262626"/>
</svg>
