<svg width="57" height="56" viewBox="0 0 57 56" fill="none" xmlns="http://www.w3.org/2000/svg">
<rect x="0.666992" width="56" height="56" rx="28" fill="#FFD400"/>
<path d="M33.5482 20.3454C31.477 21.1739 29.2587 21.7131 26.943 21.913C26.2755 21.9705 25.5998 22 24.917 22H24.167C21.2675 22 18.917 24.3505 18.917 27.25C18.917 29.8496 20.8064 32.0079 23.287 32.4265C23.6212 33.7955 24.085 35.1137 24.6646 36.3674C25.1287 37.3711 26.3388 37.6874 27.2473 37.1629L27.9036 36.784C28.7837 36.2759 29.0693 35.1913 28.6757 34.3158C28.4408 33.7935 28.2312 33.2573 28.0484 32.7089C29.9658 32.967 31.8089 33.4587 33.5482 34.1545C34.2739 31.9852 34.667 29.6635 34.667 27.2499C34.667 24.8364 34.2739 22.5147 33.5482 20.3454Z" fill="#262626"/>
<path d="M34.9276 19.7407C35.7311 22.0964 36.167 24.6222 36.167 27.2499C36.167 29.8776 35.7311 32.4035 34.9276 34.7593C34.8724 34.921 34.8157 35.082 34.7571 35.2422C34.6147 35.6311 34.8146 36.0619 35.2036 36.2043C35.5926 36.3466 36.0233 36.1467 36.1657 35.7578C36.3057 35.3753 36.4366 34.9883 36.558 34.5972C37.0816 32.9105 37.4297 31.1468 37.581 29.3277C38.0979 28.7893 38.417 28.0566 38.417 27.25C38.417 26.4433 38.0979 25.7107 37.581 25.1722C37.4297 23.3531 37.0816 21.5894 36.558 19.9027C36.4366 19.5116 36.3057 19.1247 36.1657 18.7422C36.0233 18.3532 35.5926 18.1533 35.2036 18.2957C34.8146 18.438 34.6147 18.8688 34.7571 19.2578C34.8157 19.4179 34.8724 19.5789 34.9276 19.7407Z" fill="#262626"/>
</svg>
