<svg width="40" height="40" viewBox="0 0 40 40" fill="none" xmlns="http://www.w3.org/2000/svg">
<path d="M4.2225 18.7303L4.22249 18.7303L4.22154 18.7331C3.4289 21.0767 3.02881 23.3452 3.02881 25.5364V31.9417C3.02881 32.7701 3.70038 33.4417 4.52881 33.4417H12.7081C13.5365 33.4417 14.2081 32.7701 14.2081 31.9417L14.2081 25.4637L14.208 25.4596C14.1849 22.7092 14.6234 20.2092 15.5156 17.9531C16.3266 15.9336 17.3054 13.9864 18.4524 12.1114C18.8737 11.4226 18.6922 10.5099 18.0074 10.0535L13.5096 7.05637L13.5096 7.05637C12.9612 6.69091 12.2227 6.71943 11.715 7.17179C10.1827 8.53707 8.78857 10.1627 7.53111 12.0452L7.53042 12.0462C6.14039 14.1384 5.03755 16.3668 4.2225 18.7303ZM22.1422 18.7303L22.1413 18.7331C21.3486 21.0767 20.9485 23.3452 20.9485 25.5364V31.9417C20.9485 32.7701 21.6201 33.4417 22.4485 33.4417H30.6278C31.4562 33.4417 32.1278 32.7701 32.1278 31.9417L32.1278 25.4637L32.1277 25.4596C32.1047 22.7092 32.5431 20.2092 33.4353 17.9531C34.2463 15.9336 35.2251 13.9864 36.3721 12.1114C36.7934 11.4226 36.6119 10.5099 35.9271 10.0535L31.4293 7.05637C30.8809 6.69091 30.1424 6.71943 29.6347 7.17179L29.9669 7.54454L29.6347 7.17179C28.1024 8.53708 26.7083 10.1627 25.4508 12.0452L25.4501 12.0462C24.0601 14.1384 22.9573 16.3668 22.1422 18.7303Z" fill="#FFE566" stroke="#FFE566"/>
</svg>
