<svg width="57" height="56" viewBox="0 0 57 56" fill="none" xmlns="http://www.w3.org/2000/svg">
<rect x="0.333496" width="56" height="56" rx="28" fill="#FFD400"/>
<path fill-rule="evenodd" clip-rule="evenodd" d="M35.7825 24.4482L32.7213 26.9992C32.8709 27.6574 32.8709 28.3426 32.7213 29.0008L35.7825 31.5518C36.8505 29.3118 36.8505 26.6882 35.7825 24.4482ZM31.8853 35.449L29.3343 32.3878C28.6761 32.5374 27.9909 32.5374 27.3327 32.3878L24.7817 35.449C27.0217 36.517 29.6453 36.517 31.8853 35.449ZM20.8845 31.5518L23.9457 29.0008C23.7961 28.3426 23.7961 27.6574 23.9457 26.9992L20.8845 24.4482C19.8165 26.6882 19.8165 29.3118 20.8845 31.5518ZM24.7817 20.551L27.3327 23.6122C27.9909 23.4626 28.6761 23.4626 29.3343 23.6122L31.8853 20.551C29.6453 19.483 27.0217 19.483 24.7817 20.551ZM33.439 19.6912C34.0759 20.0833 34.677 20.5549 35.2278 21.1057C35.7786 21.6565 36.2502 22.2576 36.6423 22.8945C38.5639 26.0163 38.5639 29.9837 36.6423 33.1055C36.2502 33.7424 35.7786 34.3435 35.2278 34.8943C34.677 35.4451 34.0759 35.9167 33.439 36.3088C30.3172 38.2304 26.3498 38.2304 23.228 36.3088C22.5911 35.9167 21.99 35.4451 21.4392 34.8943C20.8884 34.3435 20.4167 33.7424 20.0247 33.1055C18.1031 29.9837 18.1031 26.0163 20.0247 22.8945C20.4167 22.2576 20.8884 21.6565 21.4392 21.1057C21.99 20.5549 22.591 20.0833 23.228 19.6912C26.3498 17.7696 30.3172 17.7696 33.439 19.6912ZM30.4548 25.8787C30.1293 25.5531 29.7493 25.3191 29.3449 25.1747C28.6925 24.9418 27.9745 24.9418 27.322 25.1747C26.9177 25.3191 26.5377 25.5531 26.2122 25.8787C25.8866 26.2042 25.6526 26.5842 25.5082 26.9885C25.2753 27.641 25.2753 28.359 25.5082 29.0114C25.6526 29.4158 25.8866 29.7958 26.2122 30.1213C26.5377 30.4469 26.9177 30.6809 27.322 30.8253C27.9745 31.0582 28.6925 31.0582 29.3449 30.8253C29.7493 30.6809 30.1293 30.4469 30.4548 30.1213C30.7804 29.7958 31.0144 29.4158 31.1588 29.0115C31.3917 28.359 31.3917 27.641 31.1588 26.9885C31.0144 26.5842 30.7804 26.2042 30.4548 25.8787Z" fill="#262626"/>
</svg>
